<svg width="31" height="31" viewBox="0 0 31 31" fill="none" xmlns="http://www.w3.org/2000/svg">
<path d="M15.5 0C6.94142 0 0 7.11557 0 15.8918C0 22.9134 4.44075 28.8702 10.6007 30.9719C11.3744 31.1189 11.625 30.6262 11.625 30.2077V27.2492C7.31342 28.2107 6.41571 25.374 6.41571 25.374C5.71046 23.5371 4.69392 23.0485 4.69392 23.0485C3.28729 22.0619 4.80112 22.083 4.80112 22.083C6.35758 22.1943 7.1765 23.7212 7.1765 23.7212C8.55858 26.15 10.8022 25.4481 11.687 25.0416C11.8252 24.0152 12.2269 23.3133 12.6713 22.9174C9.22896 22.5134 5.60971 21.1507 5.60971 15.0628C5.60971 13.3266 6.2155 11.9096 7.20621 10.7972C7.04604 10.3959 6.51517 8.77892 7.35733 6.59114C7.35733 6.59114 8.65933 6.16471 11.6211 8.22006C12.8572 7.86779 14.1825 7.69165 15.5 7.68503C16.8175 7.69165 18.144 7.86779 19.3827 8.22006C22.342 6.16471 23.6414 6.59114 23.6414 6.59114C24.4848 8.78024 23.954 10.3972 23.7938 10.7972C24.7884 11.9096 25.389 13.328 25.389 15.0628C25.389 21.1666 21.7633 22.5108 18.312 22.9041C18.8674 23.3968 19.375 24.3635 19.375 25.8468V30.2077C19.375 30.6302 19.623 31.1268 20.4096 30.9706C26.5644 28.8662 31 22.9107 31 15.8918C31 7.11557 24.0599 0 15.5 0Z" fill="white"/>
</svg>
