<svg width="31" height="26" viewBox="0 0 31 26" fill="none" xmlns="http://www.w3.org/2000/svg">
<path fill-rule="evenodd" clip-rule="evenodd" d="M0 3.3913C0 2.49187 0.349935 1.62928 0.972824 0.99329C1.59571 0.357297 2.44053 0 3.32143 0H27.6786C28.5595 0 29.4043 0.357297 30.0272 0.99329C30.6501 1.62928 31 2.49187 31 3.3913V4.16452L16.3481 14.1395C16.0923 14.2966 15.7985 14.3773 15.5 14.3723C15.2015 14.3773 14.9077 14.2966 14.6519 14.1395L0 4.16452V3.3913ZM0 7.56035V22.6087C0 23.5081 0.349935 24.3707 0.972824 25.0067C1.59571 25.6427 2.44053 26 3.32143 26H27.6786C28.5595 26 29.4043 25.6427 30.0272 25.0067C30.6501 24.3707 31 23.5081 31 22.6087V7.56035L17.8759 16.4953L17.8649 16.5043C17.1583 16.9631 16.3373 17.2041 15.5 17.1984C14.6696 17.1984 13.8326 16.9678 13.1351 16.5043L13.1241 16.4953L0 7.56035Z" fill="white"/>
</svg>
