<svg width="31" height="31" viewBox="0 0 31 31" fill="none" xmlns="http://www.w3.org/2000/svg">
<path fill-rule="evenodd" clip-rule="evenodd" d="M6.6434 0C4.88191 -1.29888e-07 3.19252 0.699578 1.94671 1.94491C0.700903 3.19023 0.000676459 4.87935 0 6.64085V24.3566C0 26.1185 0.699928 27.8083 1.94581 29.0542C3.19169 30.3001 4.88146 31 6.6434 31H24.3591C26.1206 30.9993 27.8098 30.2991 29.0551 29.0533C30.3004 27.8075 31 26.1181 31 24.3566V6.64085C30.9993 4.8798 30.2994 3.19106 29.0542 1.94581C27.8089 0.700552 26.1202 0.000676159 24.3591 0H6.6434ZM26.27 6.65106C26.27 7.15853 26.0684 7.64522 25.7096 8.00405C25.3508 8.36289 24.8641 8.56448 24.3566 8.56448C23.8491 8.56448 23.3624 8.36289 23.0036 8.00405C22.6448 7.64522 22.4432 7.15853 22.4432 6.65106C22.4432 6.14359 22.6448 5.6569 23.0036 5.29806C23.3624 4.93923 23.8491 4.73763 24.3566 4.73763C24.8641 4.73763 25.3508 4.93923 25.7096 5.29806C26.0684 5.6569 26.27 6.14359 26.27 6.65106ZM15.5038 10.1922C14.0964 10.1922 12.7467 10.7512 11.7515 11.7464C10.7564 12.7416 10.1973 14.0913 10.1973 15.4987C10.1973 16.9061 10.7564 18.2559 11.7515 19.251C12.7467 20.2462 14.0964 20.8053 15.5038 20.8053C16.9112 20.8053 18.261 20.2462 19.2561 19.251C20.2513 18.2559 20.8104 16.9061 20.8104 15.4987C20.8104 14.0913 20.2513 12.7416 19.2561 11.7464C18.261 10.7512 16.9112 10.1922 15.5038 10.1922ZM7.64349 15.4987C7.64349 14.4668 7.84673 13.445 8.24163 12.4917C8.63652 11.5383 9.21532 10.6721 9.94498 9.94243C10.6746 9.21276 11.5409 8.63396 12.4942 8.23907C13.4476 7.84418 14.4694 7.64093 15.5013 7.64093C16.5332 7.64093 17.555 7.84418 18.5083 8.23907C19.4617 8.63396 20.3279 9.21276 21.0576 9.94243C21.7872 10.6721 22.366 11.5383 22.7609 12.4917C23.1558 13.445 23.3591 14.4668 23.3591 15.4987C23.3591 17.5827 22.5312 19.5814 21.0576 21.055C19.584 22.5286 17.5853 23.3565 15.5013 23.3565C13.4173 23.3565 11.4186 22.5286 9.94498 21.055C8.47136 19.5814 7.64349 17.5827 7.64349 15.4987Z" fill="white"/>
</svg>
